<svg id="Capa_1" enable-background="new 0 0 512 512" height="512" viewBox="0 0 512 512" width="512" xmlns="http://www.w3.org/2000/svg"><g><path d="m102.4 38.904v449.413c0 13.08 10.603 23.683 23.683 23.683h199.969c46.142 0 83.548-37.406 83.548-83.548v-389.548z" fill="#f4dd45"/><path d="m155.707 488.317v-449.413h-53.307v449.413c0 13.08 10.603 23.683 23.683 23.683h53.307c-13.08 0-23.683-10.603-23.683-23.683z" fill="#fcc101"/><path d="m385.916 0h-259.833c-13.08 0-23.683 10.603-23.683 23.683v21.402h307.2v-21.402c0-13.08-10.604-23.683-23.684-23.683z" fill="#fcc101"/><path d="m179.39 0h-53.307c-13.08 0-23.683 10.603-23.683 23.683v21.402h53.307v-21.402c0-13.08 10.603-23.683 23.683-23.683z" fill="#e1960f"/><path d="m366.602 31.607h-221.204c-6.292 0-11.392 5.1-11.392 11.392v185.601c0 6.291 5.1 11.392 11.392 11.392h221.203c6.292 0 11.392-5.1 11.392-11.392v-185.601c0-6.292-5.1-11.392-11.391-11.392z" fill="#477b9e"/><path d="m177.179 228.6v-185.602c0-6.292 5.1-11.392 11.392-11.392h-43.172c-6.292 0-11.392 5.1-11.392 11.392v185.602c0 6.291 5.1 11.392 11.392 11.392h43.172c-6.292 0-11.392-5.101-11.392-11.392z" fill="#365e7d"/><path d="m219.576 331.664h-11.222c-3.538 0-6.406-2.868-6.406-6.406v-11.222c0-3.538-2.868-6.406-6.406-6.406h-21.577c-3.538 0-6.406 2.868-6.406 6.406v11.222c0 3.538-2.868 6.406-6.406 6.406h-11.222c-3.538 0-6.406 2.868-6.406 6.406v21.577c0 3.538 2.868 6.406 6.406 6.406h11.222c3.538 0 6.406 2.868 6.406 6.406v11.222c0 3.538 2.868 6.406 6.406 6.406h21.577c3.538 0 6.406-2.868 6.406-6.406v-11.222c0-3.538 2.868-6.406 6.406-6.406h11.222c3.538 0 6.406-2.868 6.406-6.406v-21.577c0-3.538-2.868-6.406-6.406-6.406z" fill="#477b9e"/><path d="m189.039 383.681v-11.222c0-3.538-2.868-6.406-6.406-6.406h-11.222c-3.538 0-6.406-2.868-6.406-6.406v-21.577c0-3.538 2.868-6.406 6.406-6.406h11.222c3.538 0 6.406-2.868 6.406-6.406v-11.222c0-3.538 2.868-6.406 6.406-6.406h-21.481c-3.538 0-6.406 2.868-6.406 6.406v11.222c0 3.538-2.868 6.406-6.406 6.406h-11.222c-3.538 0-6.406 2.868-6.406 6.406v21.577c0 3.538 2.868 6.406 6.406 6.406h11.222c3.538 0 6.406 2.868 6.406 6.406v11.222c0 3.538 2.868 6.406 6.406 6.406h21.481c-3.538 0-6.406-2.868-6.406-6.406z" fill="#365e7d"/><circle cx="302.517" cy="367.647" fill="#f87c68" r="18.788"/><circle cx="349.723" cy="330.07" fill="#f87c68" r="18.788"/><path d="m301.58 367.647c0-7.146 3.99-13.358 9.862-16.535-2.655-1.436-5.695-2.253-8.926-2.253-10.376 0-18.788 8.411-18.788 18.788 0 10.376 8.412 18.788 18.788 18.788 3.231 0 6.271-.817 8.926-2.253-5.872-3.177-9.862-9.39-9.862-16.535z" fill="#ec625e"/><path d="m348.787 330.07c0-7.146 3.99-13.358 9.862-16.535-2.655-1.437-5.695-2.253-8.926-2.253-10.376 0-18.788 8.412-18.788 18.788s8.412 18.788 18.788 18.788c3.231 0 6.271-.817 8.926-2.254-5.873-3.176-9.862-9.388-9.862-16.534z" fill="#ec625e"/><g><path d="m155.546 481.08c-4.267 0-7.726-3.459-7.726-7.726v-21.774c0-4.268 3.459-7.726 7.726-7.726s7.726 3.459 7.726 7.726v21.774c.001 4.267-3.459 7.726-7.726 7.726z" fill="#e1960f"/></g><g><path d="m184.753 481.08c-4.267 0-7.726-3.459-7.726-7.726v-21.774c0-4.268 3.459-7.726 7.726-7.726s7.726 3.459 7.726 7.726v21.774c.001 4.267-3.459 7.726-7.726 7.726z" fill="#e1960f"/></g><g><path d="m213.96 481.08c-4.267 0-7.726-3.459-7.726-7.726v-21.774c0-4.268 3.459-7.726 7.726-7.726s7.726 3.459 7.726 7.726v21.774c.001 4.267-3.459 7.726-7.726 7.726z" fill="#e1960f"/></g><g><path d="m243.167 481.08c-4.267 0-7.726-3.459-7.726-7.726v-21.774c0-4.268 3.459-7.726 7.726-7.726s7.726 3.459 7.726 7.726v21.774c0 4.267-3.459 7.726-7.726 7.726z" fill="#e1960f"/></g><g><path d="m272.373 481.08c-4.267 0-7.726-3.459-7.726-7.726v-21.774c0-4.268 3.459-7.726 7.726-7.726s7.726 3.459 7.726 7.726v21.774c.001 4.267-3.458 7.726-7.726 7.726z" fill="#e1960f"/></g><g><path d="m301.58 481.08c-4.267 0-7.726-3.459-7.726-7.726v-21.774c0-4.268 3.459-7.726 7.726-7.726s7.726 3.459 7.726 7.726v21.774c.001 4.267-3.458 7.726-7.726 7.726z" fill="#e1960f"/></g><g><path d="m330.787 481.08c-4.267 0-7.726-3.459-7.726-7.726v-21.774c0-4.268 3.459-7.726 7.726-7.726s7.726 3.459 7.726 7.726v21.774c.001 4.267-3.459 7.726-7.726 7.726z" fill="#e1960f"/></g><path d="m328.389 59.592h-144.778c-4.121 0-7.462 3.341-7.462 7.462v137.489c0 4.121 3.341 7.462 7.462 7.462h144.778c4.121 0 7.462-3.341 7.462-7.462v-137.488c0-4.122-3.341-7.463-7.462-7.463z" fill="#7fb3fa"/><path d="m225.879 204.544v-137.489c0-4.121 3.341-7.462 7.462-7.462h-49.73c-4.121 0-7.462 3.341-7.462 7.462v137.489c0 4.121 3.341 7.462 7.462 7.462h49.73c-4.121 0-7.462-3.341-7.462-7.462z" fill="#64a6f4"/><g><g><path d="m298.004 149.649c-1.977 0-3.955-.755-5.463-2.263l-46.188-46.188c-3.018-3.018-3.018-7.91 0-10.928 3.017-3.016 7.91-3.016 10.927 0l46.188 46.188c3.018 3.018 3.018 7.91 0 10.928-1.509 1.509-3.487 2.263-5.464 2.263z" fill="#9cc5fa"/></g></g><g><g><path d="m305.106 117.276c-1.977 0-3.955-.755-5.463-2.264l-21.46-21.461c-3.018-3.017-3.018-7.91 0-10.927 3.017-3.016 7.909-3.017 10.927.001l21.46 21.461c3.018 3.017 3.018 7.91 0 10.927-1.509 1.508-3.487 2.263-5.464 2.263z" fill="#9cc5fa"/></g></g></g></svg>